<mxfile host="Electron" modified="2023-09-26T13:35:52.026Z" agent="Mozilla/5.0 (X11; Linux x86_64) AppleWebKit/537.36 (KHTML, like Gecko) draw.io/21.7.5 Chrome/114.0.5735.289 Electron/25.8.1 Safari/537.36" etag="70gUityRtfGr6SS-YkmK" version="21.7.5" type="device">
  <diagram id="C5RBs43oDa-KdzZeNtuy" name="Page-1">
    <mxGraphModel dx="1434" dy="791" grid="1" gridSize="10" guides="1" tooltips="1" connect="1" arrows="1" fold="1" page="1" pageScale="1" pageWidth="827" pageHeight="1169" math="0" shadow="0">
      <root>
        <mxCell id="WIyWlLk6GJQsqaUBKTNV-0" />
        <mxCell id="WIyWlLk6GJQsqaUBKTNV-1" parent="WIyWlLk6GJQsqaUBKTNV-0" />
        <mxCell id="tqMBBVZMBEcu-VLAX92A-0" value="&lt;font style=&quot;font-size: 14px;&quot;&gt;Начало&lt;/font&gt;" style="strokeWidth=2;html=1;shape=mxgraph.flowchart.terminator;whiteSpace=wrap;" parent="WIyWlLk6GJQsqaUBKTNV-1" vertex="1">
          <mxGeometry x="320" y="20" width="176" height="80" as="geometry" />
        </mxCell>
        <mxCell id="tqMBBVZMBEcu-VLAX92A-1" value="&lt;font style=&quot;font-size: 14px;&quot;&gt;Расстояние Дамерау-Левенштейна&lt;br&gt;(рекурсивная реализация)&amp;nbsp;&lt;br&gt;Входные данные: строки&amp;nbsp; S&lt;sub&gt;1&amp;nbsp;&lt;/sub&gt;и S&lt;sub&gt;2&amp;nbsp; &amp;nbsp; &amp;nbsp; &amp;nbsp; &amp;nbsp; &amp;nbsp; &amp;nbsp;&lt;/sub&gt;&amp;nbsp;&amp;nbsp;&lt;br&gt;Выходные данные: число&lt;sub&gt;&amp;nbsp; &amp;nbsp;&lt;/sub&gt;&amp;nbsp; &lt;sub&gt;&amp;nbsp;&amp;nbsp;&amp;nbsp;&amp;nbsp;&lt;/sub&gt;&lt;/font&gt;" style="strokeWidth=2;html=1;shape=mxgraph.flowchart.annotation_1;align=left;pointerEvents=1;" parent="WIyWlLk6GJQsqaUBKTNV-1" vertex="1">
          <mxGeometry x="520" y="10" width="50" height="100" as="geometry" />
        </mxCell>
        <mxCell id="tqMBBVZMBEcu-VLAX92A-2" value="" style="endArrow=none;dashed=1;html=1;rounded=0;entryX=0;entryY=0.5;entryDx=0;entryDy=0;entryPerimeter=0;exitX=1;exitY=0.5;exitDx=0;exitDy=0;exitPerimeter=0;" parent="WIyWlLk6GJQsqaUBKTNV-1" source="tqMBBVZMBEcu-VLAX92A-0" target="tqMBBVZMBEcu-VLAX92A-1" edge="1">
          <mxGeometry width="50" height="50" relative="1" as="geometry">
            <mxPoint x="384" y="200" as="sourcePoint" />
            <mxPoint x="434" y="150" as="targetPoint" />
          </mxGeometry>
        </mxCell>
        <mxCell id="tqMBBVZMBEcu-VLAX92A-3" value="&lt;font style=&quot;font-size: 14px;&quot;&gt;l&lt;sub&gt;1&amp;nbsp;&lt;/sub&gt;&amp;nbsp;= len(S&lt;sub style=&quot;&quot;&gt;1&lt;/sub&gt;)&lt;br&gt;l&lt;sub&gt;2&amp;nbsp;&lt;/sub&gt;&amp;nbsp;= len(S&lt;sub&gt;2&lt;/sub&gt;)&lt;br&gt;&lt;/font&gt;" style="shape=process;whiteSpace=wrap;html=1;backgroundOutline=1;" parent="WIyWlLk6GJQsqaUBKTNV-1" vertex="1">
          <mxGeometry x="331" y="120" width="154" height="70" as="geometry" />
        </mxCell>
        <mxCell id="tqMBBVZMBEcu-VLAX92A-4" value="" style="endArrow=none;html=1;rounded=0;entryX=0.5;entryY=1;entryDx=0;entryDy=0;entryPerimeter=0;exitX=0.5;exitY=0;exitDx=0;exitDy=0;" parent="WIyWlLk6GJQsqaUBKTNV-1" source="tqMBBVZMBEcu-VLAX92A-3" target="tqMBBVZMBEcu-VLAX92A-0" edge="1">
          <mxGeometry width="50" height="50" relative="1" as="geometry">
            <mxPoint x="424" y="310" as="sourcePoint" />
            <mxPoint x="474" y="260" as="targetPoint" />
          </mxGeometry>
        </mxCell>
        <mxCell id="tqMBBVZMBEcu-VLAX92A-21" value="min_ij = 0" style="strokeWidth=2;html=1;shape=mxgraph.flowchart.decision;whiteSpace=wrap;" parent="WIyWlLk6GJQsqaUBKTNV-1" vertex="1">
          <mxGeometry x="300" y="300" width="216" height="130" as="geometry" />
        </mxCell>
        <mxCell id="tqMBBVZMBEcu-VLAX92A-24" value="&lt;font style=&quot;font-size: 14px;&quot;&gt;min_ij = min(l&lt;sub&gt;1&lt;/sub&gt;, l&lt;sub&gt;2&lt;/sub&gt;)&lt;br&gt;&lt;/font&gt;" style="shape=process;whiteSpace=wrap;html=1;backgroundOutline=1;" parent="WIyWlLk6GJQsqaUBKTNV-1" vertex="1">
          <mxGeometry x="331" y="210" width="154" height="70" as="geometry" />
        </mxCell>
        <mxCell id="tqMBBVZMBEcu-VLAX92A-28" value="" style="endArrow=none;html=1;rounded=0;entryX=0.5;entryY=1;entryDx=0;entryDy=0;exitX=0.5;exitY=0;exitDx=0;exitDy=0;exitPerimeter=0;" parent="WIyWlLk6GJQsqaUBKTNV-1" source="tqMBBVZMBEcu-VLAX92A-21" target="tqMBBVZMBEcu-VLAX92A-24" edge="1">
          <mxGeometry width="50" height="50" relative="1" as="geometry">
            <mxPoint x="440" y="340" as="sourcePoint" />
            <mxPoint x="490" y="290" as="targetPoint" />
          </mxGeometry>
        </mxCell>
        <mxCell id="tqMBBVZMBEcu-VLAX92A-29" value="" style="endArrow=none;html=1;rounded=0;entryX=1;entryY=0.5;entryDx=0;entryDy=0;entryPerimeter=0;edgeStyle=orthogonalEdgeStyle;exitX=0.5;exitY=0;exitDx=0;exitDy=0;" parent="WIyWlLk6GJQsqaUBKTNV-1" source="tqMBBVZMBEcu-VLAX92A-30" target="tqMBBVZMBEcu-VLAX92A-21" edge="1">
          <mxGeometry width="50" height="50" relative="1" as="geometry">
            <mxPoint x="580" y="430" as="sourcePoint" />
            <mxPoint x="490" y="340" as="targetPoint" />
            <Array as="points">
              <mxPoint x="560" y="365" />
            </Array>
          </mxGeometry>
        </mxCell>
        <mxCell id="tqMBBVZMBEcu-VLAX92A-30" value="&lt;font style=&quot;font-size: 14px;&quot;&gt;res = max(l&lt;sub&gt;1&lt;/sub&gt;, l&lt;sub&gt;2&lt;/sub&gt;)&lt;br&gt;&lt;/font&gt;" style="shape=process;whiteSpace=wrap;html=1;backgroundOutline=1;" parent="WIyWlLk6GJQsqaUBKTNV-1" vertex="1">
          <mxGeometry x="483" y="425" width="154" height="70" as="geometry" />
        </mxCell>
        <mxCell id="tqMBBVZMBEcu-VLAX92A-31" value="&amp;nbsp;Да" style="text;html=1;align=center;verticalAlign=middle;resizable=0;points=[];autosize=1;strokeColor=none;fillColor=none;" parent="WIyWlLk6GJQsqaUBKTNV-1" vertex="1">
          <mxGeometry x="516" y="338" width="40" height="30" as="geometry" />
        </mxCell>
        <mxCell id="tqMBBVZMBEcu-VLAX92A-34" value="&lt;font style=&quot;font-size: 14px;&quot;&gt;res = min(&lt;br&gt;DL(S&lt;sub&gt;1&lt;/sub&gt;[1..l&lt;sub&gt;1&lt;/sub&gt;], S&lt;sub&gt;2&lt;/sub&gt;[1..l&lt;sub&gt;2&lt;/sub&gt;-1]) + 1,&lt;br&gt;DL(S&lt;sub&gt;1&lt;/sub&gt;[1..l&lt;sub&gt;1&lt;/sub&gt;-1], S&lt;sub&gt;2&lt;/sub&gt;[1..l&lt;sub&gt;2&lt;/sub&gt;]) + 1,&lt;br&gt;DL(S&lt;sub&gt;1&lt;/sub&gt;[1..l&lt;sub&gt;1&lt;/sub&gt;-1], S&lt;sub&gt;2&lt;/sub&gt;[1..l&lt;sub&gt;2&lt;/sub&gt;-1]) +&amp;nbsp;&lt;br&gt;(S&lt;sub&gt;1&lt;/sub&gt;[l&lt;sub&gt;1&lt;/sub&gt;-1] != S&lt;sub&gt;2&lt;/sub&gt;&amp;nbsp;[l&lt;sub&gt;2&lt;/sub&gt;-1]))&lt;br&gt;&lt;/font&gt;" style="shape=process;whiteSpace=wrap;html=1;backgroundOutline=1;" parent="WIyWlLk6GJQsqaUBKTNV-1" vertex="1">
          <mxGeometry x="138.5" y="420" width="220" height="115" as="geometry" />
        </mxCell>
        <mxCell id="tqMBBVZMBEcu-VLAX92A-35" value="" style="endArrow=none;html=1;rounded=0;entryX=0;entryY=0.5;entryDx=0;entryDy=0;entryPerimeter=0;edgeStyle=orthogonalEdgeStyle;exitX=0.5;exitY=0;exitDx=0;exitDy=0;" parent="WIyWlLk6GJQsqaUBKTNV-1" source="tqMBBVZMBEcu-VLAX92A-34" target="tqMBBVZMBEcu-VLAX92A-21" edge="1">
          <mxGeometry width="50" height="50" relative="1" as="geometry">
            <mxPoint x="200" y="420" as="sourcePoint" />
            <mxPoint x="500" y="360" as="targetPoint" />
          </mxGeometry>
        </mxCell>
        <mxCell id="tqMBBVZMBEcu-VLAX92A-40" value="" style="endArrow=none;html=1;rounded=0;entryX=0.5;entryY=1;entryDx=0;entryDy=0;exitX=0.5;exitY=0;exitDx=0;exitDy=0;" parent="WIyWlLk6GJQsqaUBKTNV-1" source="tqMBBVZMBEcu-VLAX92A-24" target="tqMBBVZMBEcu-VLAX92A-3" edge="1">
          <mxGeometry width="50" height="50" relative="1" as="geometry">
            <mxPoint x="450" y="290" as="sourcePoint" />
            <mxPoint x="500" y="240" as="targetPoint" />
          </mxGeometry>
        </mxCell>
        <mxCell id="tqMBBVZMBEcu-VLAX92A-47" value="&lt;font style=&quot;font-size: 14px;&quot;&gt;Конец&lt;/font&gt;" style="strokeWidth=2;html=1;shape=mxgraph.flowchart.terminator;whiteSpace=wrap;" parent="WIyWlLk6GJQsqaUBKTNV-1" vertex="1">
          <mxGeometry x="160.5" y="870" width="176" height="80" as="geometry" />
        </mxCell>
        <mxCell id="tqMBBVZMBEcu-VLAX92A-49" value="&lt;font style=&quot;font-size: 14px;&quot;&gt;l&lt;sub&gt;1&lt;/sub&gt; &amp;gt; 1 and l&lt;sub&gt;2&lt;/sub&gt;&amp;nbsp;&amp;gt; 1 and &lt;br&gt;S&lt;sub&gt;1&lt;/sub&gt;[l&lt;sub&gt;1&lt;/sub&gt;-1] =S&lt;sub&gt;2&lt;/sub&gt;[l&lt;sub&gt;2&lt;/sub&gt;-2] and&lt;br&gt;S&lt;sub&gt;1&lt;/sub&gt;[l&lt;sub&gt;1&lt;/sub&gt;-2] =S&lt;sub&gt;2&lt;/sub&gt;[l&lt;sub&gt;2&lt;/sub&gt;-1]&amp;nbsp;&lt;/font&gt;" style="strokeWidth=2;html=1;shape=mxgraph.flowchart.decision;whiteSpace=wrap;" parent="WIyWlLk6GJQsqaUBKTNV-1" vertex="1">
          <mxGeometry x="140.5" y="560" width="216" height="130" as="geometry" />
        </mxCell>
        <mxCell id="tqMBBVZMBEcu-VLAX92A-50" value="" style="endArrow=none;html=1;rounded=0;exitX=1;exitY=0.5;exitDx=0;exitDy=0;exitPerimeter=0;edgeStyle=orthogonalEdgeStyle;entryX=0.5;entryY=0;entryDx=0;entryDy=0;" parent="WIyWlLk6GJQsqaUBKTNV-1" source="tqMBBVZMBEcu-VLAX92A-49" target="tqMBBVZMBEcu-VLAX92A-53" edge="1">
          <mxGeometry width="50" height="50" relative="1" as="geometry">
            <mxPoint x="142.5" y="740" as="sourcePoint" />
            <mxPoint x="422.5" y="700" as="targetPoint" />
            <Array as="points">
              <mxPoint x="440" y="625" />
            </Array>
          </mxGeometry>
        </mxCell>
        <mxCell id="tqMBBVZMBEcu-VLAX92A-51" value="" style="endArrow=none;html=1;rounded=0;entryX=0;entryY=0.5;entryDx=0;entryDy=0;entryPerimeter=0;edgeStyle=orthogonalEdgeStyle;exitX=0.5;exitY=1;exitDx=0;exitDy=0;exitPerimeter=0;" parent="WIyWlLk6GJQsqaUBKTNV-1" target="tqMBBVZMBEcu-VLAX92A-49" edge="1">
          <mxGeometry width="50" height="50" relative="1" as="geometry">
            <mxPoint x="252.25" y="780" as="sourcePoint" />
            <mxPoint x="192.5" y="690" as="targetPoint" />
            <Array as="points">
              <mxPoint x="250" y="780" />
              <mxPoint x="250" y="760" />
              <mxPoint x="100" y="760" />
              <mxPoint x="100" y="625" />
            </Array>
          </mxGeometry>
        </mxCell>
        <mxCell id="tqMBBVZMBEcu-VLAX92A-52" value="Да" style="text;html=1;align=center;verticalAlign=middle;resizable=0;points=[];autosize=1;strokeColor=none;fillColor=none;" parent="WIyWlLk6GJQsqaUBKTNV-1" vertex="1">
          <mxGeometry x="372.5" y="590" width="40" height="30" as="geometry" />
        </mxCell>
        <mxCell id="tqMBBVZMBEcu-VLAX92A-53" value="&lt;font style=&quot;font-size: 14px;&quot;&gt;res = min(&lt;br&gt;res,&lt;br&gt;DL(S&lt;sub&gt;1&lt;/sub&gt;[1..l&lt;sub&gt;1&lt;/sub&gt;-2], S&lt;sub&gt;2&lt;/sub&gt;[1..l&lt;sub&gt;2&lt;/sub&gt;-2])&amp;nbsp;+ 1)&lt;br&gt;&lt;/font&gt;" style="shape=process;whiteSpace=wrap;html=1;backgroundOutline=1;" parent="WIyWlLk6GJQsqaUBKTNV-1" vertex="1">
          <mxGeometry x="350" y="650" width="180" height="90" as="geometry" />
        </mxCell>
        <mxCell id="tqMBBVZMBEcu-VLAX92A-54" value="" style="endArrow=none;html=1;rounded=0;entryX=0.5;entryY=1;entryDx=0;entryDy=0;edgeStyle=orthogonalEdgeStyle;" parent="WIyWlLk6GJQsqaUBKTNV-1" target="tqMBBVZMBEcu-VLAX92A-53" edge="1">
          <mxGeometry width="50" height="50" relative="1" as="geometry">
            <mxPoint x="252.5" y="780" as="sourcePoint" />
            <mxPoint x="192.5" y="690" as="targetPoint" />
            <Array as="points">
              <mxPoint x="250" y="780" />
              <mxPoint x="250" y="760" />
              <mxPoint x="438" y="760" />
              <mxPoint x="438" y="740" />
            </Array>
          </mxGeometry>
        </mxCell>
        <mxCell id="tqMBBVZMBEcu-VLAX92A-57" value="" style="endArrow=none;html=1;rounded=0;entryX=0.5;entryY=1;entryDx=0;entryDy=0;exitX=0.5;exitY=0;exitDx=0;exitDy=0;exitPerimeter=0;" parent="WIyWlLk6GJQsqaUBKTNV-1" source="tqMBBVZMBEcu-VLAX92A-49" target="tqMBBVZMBEcu-VLAX92A-34" edge="1">
          <mxGeometry width="50" height="50" relative="1" as="geometry">
            <mxPoint x="170" y="570" as="sourcePoint" />
            <mxPoint x="250" y="550" as="targetPoint" />
          </mxGeometry>
        </mxCell>
        <mxCell id="tqMBBVZMBEcu-VLAX92A-58" value="" style="endArrow=none;html=1;rounded=0;exitX=0.5;exitY=1;exitDx=0;exitDy=0;edgeStyle=orthogonalEdgeStyle;" parent="WIyWlLk6GJQsqaUBKTNV-1" source="tqMBBVZMBEcu-VLAX92A-30" edge="1">
          <mxGeometry width="50" height="50" relative="1" as="geometry">
            <mxPoint x="559.9999999999998" y="585" as="sourcePoint" />
            <mxPoint x="430" y="760" as="targetPoint" />
            <Array as="points">
              <mxPoint x="560" y="760" />
            </Array>
          </mxGeometry>
        </mxCell>
        <mxCell id="tqMBBVZMBEcu-VLAX92A-59" value="&lt;span style=&quot;font-size: 14px;&quot;&gt;Вернуть res&lt;/span&gt;" style="rounded=0;whiteSpace=wrap;html=1;" parent="WIyWlLk6GJQsqaUBKTNV-1" vertex="1">
          <mxGeometry x="168.5" y="780" width="160" height="70" as="geometry" />
        </mxCell>
        <mxCell id="tqMBBVZMBEcu-VLAX92A-63" value="" style="endArrow=none;html=1;rounded=0;entryX=0.5;entryY=1;entryDx=0;entryDy=0;exitX=0.5;exitY=0;exitDx=0;exitDy=0;exitPerimeter=0;" parent="WIyWlLk6GJQsqaUBKTNV-1" source="tqMBBVZMBEcu-VLAX92A-47" target="tqMBBVZMBEcu-VLAX92A-59" edge="1">
          <mxGeometry width="50" height="50" relative="1" as="geometry">
            <mxPoint x="200" y="920" as="sourcePoint" />
            <mxPoint x="250" y="870" as="targetPoint" />
          </mxGeometry>
        </mxCell>
      </root>
    </mxGraphModel>
  </diagram>
</mxfile>
